# xmcd
#
# Track frame offsets: 
#        150
#        20767
#        42994
#        63376
#        84655
#        109317
#        137239
#        158965
#        202003
#        221446
#        243899
#        272678
#        327073
#
# Disc length: 4658 seconds
#
# Revision: 0
# Processed by: cddbd v1.5.2PL0 Copyright (c) Steve Scherf et al.
# Submitted via: ExactAudioCopy v1.3
#
DISCID=be12300d
DTITLE=Carla Olson and Mick Taylor - Too Hot For Snakes and The Ring Of Tr
DTITLE=uth
DYEAR=2012
DGENRE=Blues Rock
TTITLE0=Loserville
TTITLE1=Never Fade Away
TTITLE2=The Low Way
TTITLE3=The Ring of Truth
TTITLE4=Locked Up Tight
TTITLE5=Sweeter
TTITLE6=Can You Please Crawl Out Your Window
TTITLE7=Great Black Hole
TTITLE8=Wave of the Hand
TTITLE9=Friends in Baltimore
TTITLE10=After You've Gone (Empty Blues)
TTITLE11=Winter
TTITLE12=Honest As Daylight
EXTD=
EXTT0=
EXTT1=
EXTT2=
EXTT3=
EXTT4=
EXTT5=
EXTT6=
EXTT7=
EXTT8=
EXTT9=
EXTT10=
EXTT11=
EXTT12=
PLAYORDER=
